<?xml version="1.0" ?><!-- Uploaded to: SVG Repo, www.svgrepo.com, Generator: SVG Repo Mixer Tools -->
<svg width="800px" height="800px" viewBox="0 0 64 64" data-name="Layer 1" id="Layer_1" xmlns="http://www.w3.org/2000/svg"><defs><style>.cls-1{fill:#0074ff;}</style></defs><title/><path class="cls-1" d="M24.64,52.06a5.55,5.55,0,0,1-3.94-1.63L6.43,36.16a5.57,5.57,0,0,1,0-7.87,5.58,5.58,0,0,1,7.88,0L24.64,38.62l1.85-1.85a2,2,0,1,1,2.83,2.83l-3.26,3.26a2,2,0,0,1-2.83,0L11.48,31.11a1.57,1.57,0,0,0-2.22,2.22L23.53,47.6a1.59,1.59,0,0,0,2.22,0l29-29a1.57,1.57,0,0,0-2.22-2.21L36.63,32.29a2,2,0,0,1-2.83-2.83L49.69,13.57a5.57,5.57,0,0,1,7.88,7.87l-29,29A5.54,5.54,0,0,1,24.64,52.06Z"/></svg>