<?xml version="1.0" encoding="utf-8"?>
<!-- Uploaded to: SVG Repo, www.svgrepo.com, Generator: SVG Repo Mixer Tools -->
<svg width="800px" height="800px" viewBox="0 0 1024 1024" class="icon"  version="1.1" xmlns="http://www.w3.org/2000/svg"><path d="M149.839796 471.947059l618.870118 0 0 138.940956-618.870118 0 0-138.940956Z" fill="#178E3B" /><path d="M322.9092 538.608635H190.953465a11.964898 11.964898 0 1 1 0-23.929797h131.955735a11.964898 11.964898 0 0 1 0 23.929797zM751.206977 540.135584H486.201573a11.964898 11.964898 0 0 1 0-23.929797h265.005404a11.964898 11.964898 0 0 1 0 23.929797z" fill="#2FA65B" /><path d="M722.160762 621.610843H211.077284a77.90858 77.90858 0 0 1-77.828814-77.828814v-31.154316a77.90858 77.90858 0 0 1 77.828814-77.828815h511.072083a77.90858 77.90858 0 0 1 77.828814 77.828815v31.154316a77.90858 77.90858 0 0 1-77.817419 77.828814zM211.077284 482.658491a30.003407 30.003407 0 0 0-29.969221 29.969222v31.154316a30.003407 30.003407 0 0 0 29.969221 29.969221h511.072083a30.003407 30.003407 0 0 0 29.969221-29.969221v-31.154316a30.003407 30.003407 0 0 0-29.969221-29.969222z" fill="#203529" /><path d="M572.018382 871.415128h-210.810112A113.803275 113.803275 0 0 1 247.553131 757.78278V597.681047a23.929796 23.929796 0 0 1 23.929797-23.929797h390.27219a23.929796 23.929796 0 0 1 23.929797 23.929797V757.78278a113.803275 113.803275 0 0 1-113.666533 113.632348zM295.412724 621.610843V757.78278a65.886706 65.886706 0 0 0 65.806941 65.806941h210.810112A65.886706 65.886706 0 0 0 637.825322 757.78278V621.610843zM400.943127 482.658491H271.482928a23.929796 23.929796 0 0 1-23.929797-23.929796V159.970883a74.22795 74.22795 0 0 1 74.148184-74.148183h29.023425a74.22795 74.22795 0 0 1 74.148183 74.148183v298.757812a23.929796 23.929796 0 0 1-23.929796 23.929796z m-105.530403-47.859593h81.600606V159.970883a26.311381 26.311381 0 0 0-26.28859-26.28859h-29.023425a26.311381 26.311381 0 0 0-26.288591 26.28859zM661.755118 482.658491H532.294919a23.929796 23.929796 0 0 1-23.929796-23.929796V159.970883a74.22795 74.22795 0 0 1 74.148184-74.148183h29.023424a74.22795 74.22795 0 0 1 74.148184 74.148183v298.757812a23.929796 23.929796 0 0 1-23.929797 23.929796z m-105.530402-47.859593h81.600606V159.970883a26.311381 26.311381 0 0 0-26.288591-26.28859h-29.023424a26.311381 26.311381 0 0 0-26.288591 26.28859z" fill="#203529" /><path d="M322.9092 207.363275a31.256872 13.070227 90 1 0 26.140454 0 31.256872 13.070227 90 1 0-26.140454 0Z" fill="#203529" /><path d="M583.949094 207.363275a31.256872 13.070227 90 1 0 26.140454 0 31.256872 13.070227 90 1 0-26.140454 0Z" fill="#203529" /><path d="M601.896442 685.685722H335.979427a11.964898 11.964898 0 1 1 0-23.929797h265.917015a11.964898 11.964898 0 1 1 0 23.929797zM601.896442 749.395956H335.979427a11.964898 11.964898 0 1 1 0-23.929796h265.917015a11.964898 11.964898 0 0 1 0 23.929796zM466.658906 954.474312a107.467577 107.467577 0 0 1-107.34223-107.34223 23.929796 23.929796 0 1 1 47.859593 0 59.482637 59.482637 0 1 0 118.965274 0 23.929796 23.929796 0 0 1 47.859593 0 107.467577 107.467577 0 0 1-107.34223 107.34223z" fill="#203529" /><path d="M546.185596 1023.996069a83.423829 83.423829 0 0 1-35.484469-7.543584c-46.902401-21.719139-55.596894-81.760138-55.938748-84.324045a11.964898 11.964898 0 0 1 23.701893-3.25901c0.068371 0.501386 7.384051 49.773977 42.389926 65.898102 25.787205 11.873737 61.226094 3.749001 105.32529-24.1577 21.650768-21.137987 36.851887-43.711762 50.252572-63.653258 28.875288-42.971077 53.899018-80.187609 120.138974-55.380387 14.688337-4.694798 71.025915-25.490931 89.61139-73.05425 13.537428-34.629834 4.558056-76.962784-26.573469-125.813754a11.964898 11.964898 0 1 1 20.1694-12.865114c35.564236 55.733636 45.204525 105.405056 28.647385 147.567078-25.889761 65.966472-105.974813 87.526079-109.324985 88.414901a11.964898 11.964898 0 0 1-7.475213-0.478596c-51.278135-20.579625-65.966472 1.333232-95.30896 44.988017-14.243926 21.194963-30.390842 45.21592-54.354824 68.370847a11.964898 11.964898 0 0 1-1.880198 1.481369c-35.324938 22.505404-66.752737 33.809384-93.895964 33.809384zM179.991339 388.580206A11.964898 11.964898 0 0 1 168.106207 377.663661l-4.660613-53.65972-37.706522 22.152154A11.964898 11.964898 0 0 1 107.711959 335.604194l2.472745-119.46666a11.964898 11.964898 0 1 1 23.929797 0.489991l-2.028335 97.998214 35.564235-20.910084a11.964898 11.964898 0 0 1 17.981533 9.275645l6.290118 72.598445a11.964898 11.964898 0 0 1-10.88236 12.990461h-1.048353zM774.327718 242.277988a11.976293 11.976293 0 0 1-11.121658-16.386213L790.941834 156.119326l-61.795851 4.136436a11.964898 11.964898 0 0 1-11.395141-17.514332L789.711159 6.38717a11.964898 11.964898 0 0 1 21.172172 11.167239l-61.955383 117.44972 59.334501-3.954114a11.964898 11.964898 0 0 1 11.919317 16.352028L785.494957 234.7458a11.964898 11.964898 0 0 1-11.167239 7.532188z" fill="#203529" /></svg>