<?xml version="1.0" encoding="utf-8"?>
<!-- Uploaded to: SVG Repo, www.svgrepo.com, Generator: SVG Repo Mixer Tools -->
<svg width="800px" height="800px" viewBox="0 0 1024 1024" class="icon"  version="1.1" xmlns="http://www.w3.org/2000/svg"><path d="M704 256m-149.333333 0a149.333333 149.333333 0 1 0 298.666666 0 149.333333 149.333333 0 1 0-298.666666 0Z" fill="#BA68C8" /><path d="M704 149.333333c-58.816 0-106.666667 47.850667-106.666667 106.666667s47.850667 106.666667 106.666667 106.666667 106.666667-47.850667 106.666667-106.666667-47.850667-106.666667-106.666667-106.666667z" fill="#FFFFFF" /><path d="M704 256m-21.333333 0a21.333333 21.333333 0 1 0 42.666666 0 21.333333 21.333333 0 1 0-42.666666 0Z" fill="#263238" /><path d="M682.666667 170.666667h42.666666v85.333333h-42.666666z" fill="#263238" /><path d="M715.861333 238.250667l64 42.666666-23.658666 35.52-64-42.666666z" fill="#263238" /><path d="M298.666667 106.666667a85.333333 85.333333 0 1 1 0 170.666666 85.333333 85.333333 0 0 1 0-170.666666" fill="#FFB74D" /><path d="M394.624 661.354667a74.730667 74.730667 0 0 1-71.509333-53.226667l-64-213.333333a74.666667 74.666667 0 1 1 143.04-42.901334l64 213.333334a74.645333 74.645333 0 0 1-71.530667 96.128z" fill="#607D8B" /><path d="M682.624 917.333333a42.624 42.624 0 0 1-41.344-32.32L576 661.333333h-170.666667l42.666667-106.666666 170.666667 21.333333a42.666667 42.666667 0 0 1 41.386666 32.32l64 256A42.666667 42.666667 0 0 1 682.624 917.333333z" fill="#607D8B" /><path d="M501.354667 597.333333c-2.56 0-5.162667-0.32-7.786667-0.96l-170.666667-42.666666a32 32 0 0 1-23.274666-23.274667l-46.208-155.093333c-11.178667-42.453333 21.589333-71.36 75.477333-76.693334 0 0-23.658667 23.936-19.392 41.045334l47.552 156.565333 152.042667 38.016A32 32 0 0 1 501.354667 597.333333z" fill="#607D8B" /><path d="M357.056 496.277333l95.594667 23.893334-7.125334-23.786667-71.573333-17.877333-59.968-124.053334zM533.226667 565.333333c0 2.56-0.213333 5.162667-0.853334 7.765334a32 32 0 0 1-38.805333 23.274666l-170.666667-42.666666a31.850667 31.850667 0 0 1-22.506666-21.333334l11.989333 39.893334c1.813333 0.661333 3.456 1.664 5.376 2.154666l170.645333 42.666667a53.269333 53.269333 0 0 0 66.197334-49.088l-21.376-2.666667z" fill="#37474F" /><path d="M576 746.666667h-170.666667c-128 0-154.944-86.741333-160.277333-108.010667L151.210667 332.501333s83.968-27.008 106.368 56.256 70.741333 231.701333 70.741333 231.701334C328.448 620.629333 341.333333 661.333333 405.333333 661.333333h86.229334c85.333333 0 84.437333 85.333333 84.437333 85.333334z" fill="#FF9800" /></svg>